<?xml version="1.0" standalone="no"?><!DOCTYPE svg PUBLIC "-//W3C//DTD SVG 1.1//EN" "http://www.w3.org/Graphics/SVG/1.1/DTD/svg11.dtd"><svg t="1537178564311" class="icon" style="" viewBox="0 0 1024 1024" version="1.1" xmlns="http://www.w3.org/2000/svg" p-id="2596" xmlns:xlink="http://www.w3.org/1999/xlink" width="64" height="64"><defs><style type="text/css"></style></defs><path d="M512 870.4c-188.8 0-342.4-153.6-342.4-342.4 0-188.8 153.6-342.4 342.4-342.4 27.2 0 54.4 3.2 80 9.6l-8 30.4c-24-6.4-48-8-72-8-171.2 0-310.4 139.2-310.4 310.4S340.8 838.4 512 838.4 822.4 699.2 822.4 528c0-56-16-112-44.8-160l27.2-16c32 52.8 49.6 113.6 49.6 176 0 188.8-153.6 342.4-342.4 342.4z" p-id="2597" fill="#cdcdcd"></path><path d="M752 416h-32v-144h128v32h-96z" p-id="2598" fill="#cdcdcd"></path></svg>