<?xml version="1.0" standalone="no"?><!DOCTYPE svg PUBLIC "-//W3C//DTD SVG 1.1//EN" "http://www.w3.org/Graphics/SVG/1.1/DTD/svg11.dtd"><svg t="1537372513809" class="icon" style="" viewBox="0 0 1024 1024" version="1.1" xmlns="http://www.w3.org/2000/svg" p-id="3482" xmlns:xlink="http://www.w3.org/1999/xlink" width="200" height="200"><defs><style type="text/css"></style></defs><path d="M395.473053 947.106726c-102.879112 0-186.582489-65.00348-186.582489-144.900158s83.703377-144.900158 186.582489-144.900158 186.573279 65.00348 186.573279 144.900158S498.352165 947.106726 395.473053 947.106726zM395.473053 694.869934c-82.171488 0-149.017942 48.14758-149.017942 107.336634 0 59.189054 66.846454 107.336634 149.017942 107.336634 82.162278 0 149.008732-48.14758 149.008732-107.336634C544.481785 743.016491 477.635331 694.869934 395.473053 694.869934z" p-id="3483"></path><path d="M569.502645 809.377898l-37.862329-75.128071L531.640316 95.42535c0-8.80248 12.372795-16.391319 21.103644-18.166755 8.730848-1.720178 20.584827 2.752694 24.087605 10.867512 53.365418 122.94717 121.416304 155.1148 169.994696 178.588421 29.438473 14.236236 55.632041 26.53433 64.86738 54.69981 10.93198 33.308617-3.543709 80.817654-54.44296 175.309748l-32.970926-17.423835c43.112913-80.038918 59.32106-125.193327 52.351322-146.43921-4.145413-12.624529-24.143886-19.942191-50.794873-32.819476-40.939411-19.796882-100.051717-47.744397-156.333558-128.743176L569.502645 809.377898z" p-id="3484"></path></svg>