<?xml version="1.0" standalone="no"?><!DOCTYPE svg PUBLIC "-//W3C//DTD SVG 1.1//EN" "http://www.w3.org/Graphics/SVG/1.1/DTD/svg11.dtd"><svg t="1537369438338" class="icon" style="" viewBox="0 0 1024 1024" version="1.1" xmlns="http://www.w3.org/2000/svg" p-id="2599" xmlns:xlink="http://www.w3.org/1999/xlink" width="200" height="200"><defs><style type="text/css"></style></defs><path d="M544.244622 512.068267l280.712533 280.689778c8.897422 8.874667 8.897422 23.278933 0 32.176356s-23.278933 8.897422-32.176356 0L512.068267 544.267378 232.516267 823.819378c-8.874667 8.874667-23.233422 8.874667-32.085333 0-8.851911-8.851911-8.851911-23.210667 0-32.062578l279.574756-279.574756L199.042844 231.2192c-8.897422-8.897422-8.897422-23.301689 0-32.176356 8.874667-8.897422 23.278933-8.897422 32.176356 0l280.962844 280.962844L792.189156 199.998578c8.851911-8.851911 23.210667-8.851911 32.039822 0 8.874667 8.851911 8.874667 23.233422 0 32.085333L544.244622 512.068267z" p-id="2600"></path></svg>